<?xml version="1.0" encoding="utf-8"?>
<!-- Generator: Adobe Illustrator 19.0.1, SVG Export Plug-In . SVG Version: 6.00 Build 0)  -->
<svg version="1.1" id="Слой_1" xmlns="http://www.w3.org/2000/svg" xmlns:xlink="http://www.w3.org/1999/xlink" x="0px" y="0px"
	 viewBox="0 0 19 17.2" style="enable-background:new 0 0 19 17.2;" xml:space="preserve">
<style type="text/css">
	.st0{fill:#FFFFFF;}
</style>
<g>
	<g>
		<path class="st0" d="M9.8,16.8c-0.2,0-0.3-0.1-0.3-0.3V0.9c0-0.2,0.1-0.3,0.3-0.3c0.2,0,0.3,0.1,0.3,0.3v15.6
			C10.1,16.7,10,16.8,9.8,16.8z"/>
	</g>
	<g>
		<circle class="st0" cx="9.8" cy="0.9" r="0.9"/>
	</g>
	<g>
		<circle class="st0" cx="9.8" cy="14.3" r="0.9"/>
	</g>
	<g>
		<path class="st0" d="M16.4,16.9l-2.8-0.4l-3.8-0.6L6,16.5l-2.8,0.4C3,16.9,3,17,3.2,17h13.2C16.6,17,16.6,16.9,16.4,16.9z"/>
		<path class="st0" d="M16.4,17.2H3.2c-0.2,0-0.3-0.1-0.3-0.2c0-0.1,0.1-0.2,0.2-0.2l6.7-1l0,0l6.6,1c0.2,0,0.2,0.1,0.2,0.2
			C16.7,17.1,16.6,17.2,16.4,17.2z M4.4,16.9l10.8,0l-5.4-0.8L4.4,16.9z"/>
	</g>
	<g>
		<path class="st0" d="M3,10.5c-1.5,0-2.7-0.4-2.7-0.9h5.4C5.8,10.1,4.5,10.5,3,10.5z"/>
		<path class="st0" d="M3,10.9c-1.5,0-3-0.4-3-1.3c0-0.2,0.1-0.3,0.3-0.3h5.4c0.2,0,0.3,0.1,0.3,0.3C6.1,10.5,4.5,10.9,3,10.9z
			 M1.1,9.9c0.4,0.2,1.1,0.3,2,0.3s1.6-0.2,2-0.3H1.1z"/>
	</g>
	<g>
		<path class="st0" d="M5.8,9.9c-0.1,0-0.2-0.1-0.3-0.2L2.7,2.4C2.7,2.2,2.8,2.1,2.9,2c0.2-0.1,0.3,0,0.4,0.2l2.7,7.3
			c0.1,0.2,0,0.3-0.2,0.4C5.8,9.9,5.8,9.9,5.8,9.9z"/>
	</g>
	<g>
		<path class="st0" d="M0.3,9.9c0,0-0.1,0-0.1,0C0.1,9.8,0,9.7,0,9.6c0,0,0-0.1,0-0.1l2.7-7.3C2.8,2,3,2,3.2,2
			c0.1,0,0.2,0.2,0.2,0.3c0,0,0,0.1,0,0.1L0.6,9.7C0.6,9.8,0.4,9.9,0.3,9.9z"/>
	</g>
	<g>
		<path class="st0" d="M16,13.9c1.5,0,2.7-0.4,2.7-0.9h-5.4C13.2,13.5,14.5,13.9,16,13.9z"/>
		<path class="st0" d="M16,14.3c-1.5,0-3-0.4-3-1.3c0-0.2,0.1-0.3,0.3-0.3h5.4c0.2,0,0.3,0.1,0.3,0.3C19,13.9,17.4,14.3,16,14.3z
			 M14,13.3c0.4,0.2,1.1,0.3,2,0.3c0.9,0,1.6-0.2,2-0.3H14z"/>
	</g>
	<g>
		<path class="st0" d="M13.2,13.3c0,0-0.1,0-0.1,0c-0.2-0.1-0.2-0.2-0.2-0.4l2.7-7.3c0.1-0.2,0.2-0.2,0.4-0.2
			c0.2,0.1,0.2,0.2,0.2,0.4l-2.7,7.3C13.5,13.2,13.4,13.3,13.2,13.3z"/>
	</g>
	<g>
		<path class="st0" d="M18.7,13.3c-0.1,0-0.2-0.1-0.3-0.2l-2.7-7.3c0,0,0-0.1,0-0.1c0-0.1,0.1-0.2,0.2-0.3c0.2-0.1,0.3,0,0.4,0.2
			l2.7,7.3c0,0,0,0.1,0,0.1c0,0.1-0.1,0.2-0.2,0.3C18.8,13.3,18.7,13.3,18.7,13.3z"/>
	</g>
	<g>
		<path class="st0" d="M15.8,5.1c-0.8-1.5-3.1-2.9-5.8-3.6C7.3,0.8,4.7,1,3.2,1.9L2.9,1.4c1.6-1,4.4-1.2,7.3-0.4
			c2.9,0.7,5.2,2.2,6.2,3.9L15.8,5.1z"/>
	</g>
	<g>
		<path class="st0" d="M16,6c-0.4,0-0.7-0.3-0.7-0.7s0.3-0.7,0.7-0.7s0.7,0.3,0.7,0.7S16.3,6,16,6z M16,5.3
			C15.9,5.3,15.9,5.3,16,5.3C15.9,5.4,16,5.4,16,5.3C16,5.3,16,5.3,16,5.3z"/>
	</g>
	<g>
		<path class="st0" d="M3,2.6c-0.4,0-0.7-0.3-0.7-0.7S2.7,1.3,3,1.3s0.7,0.3,0.7,0.7S3.4,2.6,3,2.6z M3,1.9C3,1.9,3,1.9,3,1.9
			C3,2,3.1,2,3,1.9C3.1,1.9,3.1,1.9,3,1.9z"/>
	</g>
</g>
</svg>
