<?xml version="1.0" encoding="utf-8"?>
<!-- Generator: Adobe Illustrator 21.0.0, SVG Export Plug-In . SVG Version: 6.00 Build 0)  -->
<svg version="1.1" id="Слой_1" xmlns="http://www.w3.org/2000/svg" xmlns:xlink="http://www.w3.org/1999/xlink" x="0px" y="0px"
	 viewBox="0 0 22 19.5" style="enable-background:new 0 0 22 19.5;" xml:space="preserve">
<style type="text/css">
	.st0{fill:#FFFFFF;}
</style>
<g transform="translate(0,-952.36218)">
	<path class="st0" d="M3.2,952.4c-0.3,0-0.5,0.2-0.4,0.5v1.3H0.5c-0.3,0-0.5,0.2-0.5,0.5v11.8c0,0.3,0.2,0.5,0.5,0.5h12
		c0,0.1,0,0.2,0,0.3c0,2.6,2.1,4.8,4.8,4.8s4.8-2.1,4.8-4.8s-2.1-4.8-4.8-4.8c-0.1,0-0.2,0-0.3,0v-7.8c0-0.3-0.2-0.5-0.5-0.5h-0.8
		c0,0,0,0,0,0c-0.3,0-0.5,0.2-0.5,0.5c0,0.3,0.2,0.5,0.5,0.5H16v1.5H1v-1.5h2.3c0.3,0,0.5-0.2,0.5-0.5v-1.8
		C3.8,952.6,3.5,952.4,3.2,952.4C3.2,952.4,3.2,952.4,3.2,952.4z M13.7,952.4c-0.3,0-0.5,0.2-0.4,0.5v1.3h-8c-0.3,0-0.5,0.2-0.5,0.5
		c0,0.3,0.2,0.5,0.5,0.5c0,0,0,0,0,0h8.5c0.3,0,0.5-0.2,0.5-0.5v-1.8C14.3,952.6,14,952.4,13.7,952.4
		C13.7,952.4,13.7,952.4,13.7,952.4z M1,957.6h15v4.9c-0.3,0.1-0.5,0.2-0.8,0.3v-0.2c0-0.3-0.2-0.5-0.5-0.5h-2.5c0,0,0,0,0,0
		c-0.3,0-0.5,0.2-0.5,0.5v2c0,0.3,0.2,0.5,0.5,0.5h0.7c-0.1,0.2-0.2,0.5-0.3,0.8H1V957.6z M2.2,958.4c-0.3,0-0.5,0.2-0.5,0.5v2
		c0,0.3,0.2,0.5,0.5,0.5h2.5c0.3,0,0.5-0.2,0.5-0.5v-2c0-0.3-0.2-0.5-0.5-0.5H2.2C2.2,958.4,2.2,958.4,2.2,958.4z M7.3,958.4
		c-0.3,0-0.5,0.2-0.5,0.5v2c0,0.3,0.2,0.5,0.5,0.5h2.5c0.3,0,0.5-0.2,0.5-0.5v-2c0-0.3-0.2-0.5-0.5-0.5c0,0,0,0,0,0H7.3z
		 M12.3,958.4c-0.3,0-0.5,0.2-0.5,0.5v2c0,0.3,0.2,0.5,0.5,0.5h2.5c0.3,0,0.5-0.2,0.5-0.5v-2c0-0.3-0.2-0.5-0.5-0.5c0,0,0,0,0,0
		H12.3z M2.8,959.4h1.5v1H2.8V959.4z M7.8,959.4h1.5v1H7.8V959.4z M12.8,959.4h1.5v1h-1.5V959.4z M2.3,962.1c-0.3,0-0.5,0.2-0.5,0.5
		v2c0,0.3,0.2,0.5,0.5,0.5h2.5c0.3,0,0.5-0.2,0.5-0.5v-2c0-0.3-0.2-0.5-0.5-0.5H2.3z M7.3,962.1c-0.3,0-0.5,0.2-0.5,0.5v2
		c0,0.3,0.2,0.5,0.5,0.5h2.5c0.3,0,0.5-0.2,0.5-0.5v-2c0-0.3-0.2-0.5-0.5-0.5H7.3z M2.8,963.1h1.5v1H2.8V963.1z M7.8,963.1h1.5v1
		H7.8V963.1z M12.8,963.1h1.5v0.3c-0.2,0.2-0.5,0.4-0.7,0.7h-0.8V963.1z M17.3,963.4c2.1,0,3.8,1.7,3.8,3.8s-1.7,3.8-3.8,3.8
		s-3.8-1.7-3.8-3.8S15.2,963.4,17.3,963.4z M16.9,964.4c-0.3,0-0.5,0.2-0.4,0.5v2.5c0,0.2,0.1,0.3,0.3,0.4l1.8,1
		c0.2,0.1,0.5,0.1,0.7-0.2c0.1-0.2,0.1-0.5-0.2-0.7l-1.5-0.9v-2.2C17.5,964.6,17.3,964.4,16.9,964.4C17,964.4,17,964.4,16.9,964.4z"
		/>
</g>
</svg>
